<mxfile host="app.diagrams.net" modified="2023-03-24T14:33:11.753Z" agent="Mozilla/5.0 (Windows NT 10.0; Win64; x64; rv:109.0) Gecko/20100101 Firefox/111.0" etag="H2-1zy5quwesf9R7lQb_" version="21.1.0" type="github">
  <diagram name="Sayfa -1" id="VlHYEeJTfce4ZR7y-VUg">
    <mxGraphModel dx="875" dy="511" grid="1" gridSize="10" guides="1" tooltips="1" connect="1" arrows="1" fold="1" page="1" pageScale="1" pageWidth="827" pageHeight="1169" math="0" shadow="0">
      <root>
        <mxCell id="0" />
        <mxCell id="1" parent="0" />
        <mxCell id="P8AKB918pg-EpybjRqPn-1" value="&lt;div&gt;CUSTOMER&lt;/div&gt;&lt;div&gt;&lt;br&gt;&lt;/div&gt;" style="shape=umlActor;verticalLabelPosition=bottom;verticalAlign=top;html=1;outlineConnect=0;" vertex="1" parent="1">
          <mxGeometry x="40" y="40" width="30" height="60" as="geometry" />
        </mxCell>
        <mxCell id="P8AKB918pg-EpybjRqPn-3" value="&lt;div&gt;SHELF EMPLOYEE&lt;/div&gt;&lt;div&gt;&lt;br&gt;&lt;/div&gt;" style="shape=umlActor;verticalLabelPosition=bottom;verticalAlign=top;html=1;outlineConnect=0;" vertex="1" parent="1">
          <mxGeometry x="40" y="330" width="30" height="60" as="geometry" />
        </mxCell>
        <mxCell id="P8AKB918pg-EpybjRqPn-4" value="&lt;div&gt;DELIVERY EMPLOYEE&lt;/div&gt;&lt;div&gt;&lt;br&gt;&lt;/div&gt;" style="shape=umlActor;verticalLabelPosition=bottom;verticalAlign=top;html=1;outlineConnect=0;" vertex="1" parent="1">
          <mxGeometry x="80" y="560" width="30" height="60" as="geometry" />
        </mxCell>
        <mxCell id="P8AKB918pg-EpybjRqPn-5" value="&lt;div&gt;ADMINISTIRATIVE EMPLOYEE&lt;/div&gt;&lt;div&gt;&lt;br&gt;&lt;/div&gt;" style="shape=umlActor;verticalLabelPosition=bottom;verticalAlign=top;html=1;outlineConnect=0;" vertex="1" parent="1">
          <mxGeometry x="80" y="420" width="30" height="60" as="geometry" />
        </mxCell>
        <mxCell id="P8AKB918pg-EpybjRqPn-8" value="BANKING SYSTEM" style="shape=umlActor;verticalLabelPosition=bottom;verticalAlign=top;html=1;outlineConnect=0;" vertex="1" parent="1">
          <mxGeometry x="680" y="430" width="30" height="60" as="geometry" />
        </mxCell>
        <mxCell id="P8AKB918pg-EpybjRqPn-11" value="Browse Product" style="ellipse;whiteSpace=wrap;html=1;" vertex="1" parent="1">
          <mxGeometry x="220" y="20" width="100" height="60" as="geometry" />
        </mxCell>
        <mxCell id="P8AKB918pg-EpybjRqPn-13" value="Add products to shopping cart" style="ellipse;whiteSpace=wrap;html=1;" vertex="1" parent="1">
          <mxGeometry x="400" y="20" width="100" height="60" as="geometry" />
        </mxCell>
        <mxCell id="P8AKB918pg-EpybjRqPn-15" value="Remove products from shopping cart" style="ellipse;whiteSpace=wrap;html=1;" vertex="1" parent="1">
          <mxGeometry x="240" y="90" width="110" height="60" as="geometry" />
        </mxCell>
        <mxCell id="P8AKB918pg-EpybjRqPn-19" value="" style="endArrow=none;html=1;rounded=0;exitX=0.5;exitY=0.5;exitDx=0;exitDy=0;exitPerimeter=0;" edge="1" parent="1" source="P8AKB918pg-EpybjRqPn-1">
          <mxGeometry width="50" height="50" relative="1" as="geometry">
            <mxPoint x="170" y="95" as="sourcePoint" />
            <mxPoint x="220" y="45" as="targetPoint" />
          </mxGeometry>
        </mxCell>
        <mxCell id="P8AKB918pg-EpybjRqPn-23" value="" style="endArrow=none;html=1;rounded=0;exitX=0.5;exitY=0.5;exitDx=0;exitDy=0;exitPerimeter=0;" edge="1" parent="1" source="P8AKB918pg-EpybjRqPn-1" target="P8AKB918pg-EpybjRqPn-15">
          <mxGeometry width="50" height="50" relative="1" as="geometry">
            <mxPoint x="160" y="210" as="sourcePoint" />
            <mxPoint x="210" y="160" as="targetPoint" />
          </mxGeometry>
        </mxCell>
        <mxCell id="P8AKB918pg-EpybjRqPn-25" value="&lt;div&gt;Place an order with the existing cart&lt;/div&gt;" style="ellipse;whiteSpace=wrap;html=1;" vertex="1" parent="1">
          <mxGeometry x="180" y="170" width="100" height="60" as="geometry" />
        </mxCell>
        <mxCell id="P8AKB918pg-EpybjRqPn-27" value="" style="endArrow=none;html=1;rounded=0;exitX=0.5;exitY=0.5;exitDx=0;exitDy=0;exitPerimeter=0;" edge="1" parent="1" source="P8AKB918pg-EpybjRqPn-1" target="P8AKB918pg-EpybjRqPn-25">
          <mxGeometry width="50" height="50" relative="1" as="geometry">
            <mxPoint x="110" y="270" as="sourcePoint" />
            <mxPoint x="160" y="220" as="targetPoint" />
          </mxGeometry>
        </mxCell>
        <mxCell id="P8AKB918pg-EpybjRqPn-29" value="Select a delivery time and date" style="ellipse;whiteSpace=wrap;html=1;" vertex="1" parent="1">
          <mxGeometry x="370" y="170" width="100" height="60" as="geometry" />
        </mxCell>
        <mxCell id="P8AKB918pg-EpybjRqPn-31" value="" style="endArrow=open;rounded=0;entryX=0;entryY=0.5;entryDx=0;entryDy=0;endFill=0;dashed=1;align=center;horizontal=1;strokeColor=default;metaEdit=0;html=1;labelBorderColor=none;" edge="1" parent="1" source="P8AKB918pg-EpybjRqPn-25" target="P8AKB918pg-EpybjRqPn-29">
          <mxGeometry width="50" height="50" relative="1" as="geometry">
            <mxPoint x="260" y="270" as="sourcePoint" />
            <mxPoint x="310" y="220" as="targetPoint" />
          </mxGeometry>
        </mxCell>
        <mxCell id="P8AKB918pg-EpybjRqPn-34" value="&lt;font style=&quot;font-size: 10px;&quot;&gt;&amp;lt;&amp;lt;include&amp;gt;&amp;gt;&lt;/font&gt;" style="edgeLabel;html=1;align=center;verticalAlign=middle;resizable=0;points=[];rotation=-29;" vertex="1" connectable="0" parent="P8AKB918pg-EpybjRqPn-31">
          <mxGeometry x="-0.2339" relative="1" as="geometry">
            <mxPoint x="6" y="4" as="offset" />
          </mxGeometry>
        </mxCell>
        <mxCell id="P8AKB918pg-EpybjRqPn-37" value="proceed to checkout" style="ellipse;whiteSpace=wrap;html=1;" vertex="1" parent="1">
          <mxGeometry x="314" y="280" width="100" height="60" as="geometry" />
        </mxCell>
        <mxCell id="P8AKB918pg-EpybjRqPn-38" value="" style="endArrow=open;rounded=0;entryX=0;entryY=0.5;entryDx=0;entryDy=0;endFill=0;dashed=1;align=center;horizontal=1;strokeColor=default;metaEdit=0;html=1;labelBorderColor=none;" edge="1" parent="1" target="P8AKB918pg-EpybjRqPn-37" source="P8AKB918pg-EpybjRqPn-25">
          <mxGeometry width="50" height="50" relative="1" as="geometry">
            <mxPoint x="220" y="293" as="sourcePoint" />
            <mxPoint x="270" y="280" as="targetPoint" />
          </mxGeometry>
        </mxCell>
        <mxCell id="P8AKB918pg-EpybjRqPn-39" value="&lt;font style=&quot;font-size: 10px;&quot;&gt;&amp;lt;&amp;lt;include&amp;gt;&amp;gt;&lt;/font&gt;" style="edgeLabel;html=1;align=center;verticalAlign=middle;resizable=0;points=[];rotation=-29;" vertex="1" connectable="0" parent="P8AKB918pg-EpybjRqPn-38">
          <mxGeometry x="-0.2339" relative="1" as="geometry">
            <mxPoint x="6" y="4" as="offset" />
          </mxGeometry>
        </mxCell>
        <mxCell id="P8AKB918pg-EpybjRqPn-41" value="" style="endArrow=open;rounded=0;entryX=1;entryY=0.5;entryDx=0;entryDy=0;endFill=0;dashed=1;align=center;horizontal=1;strokeColor=default;metaEdit=0;html=1;labelBorderColor=none;exitX=0.04;exitY=0.717;exitDx=0;exitDy=0;exitPerimeter=0;" edge="1" parent="1" source="P8AKB918pg-EpybjRqPn-13" target="P8AKB918pg-EpybjRqPn-11">
          <mxGeometry width="50" height="50" relative="1" as="geometry">
            <mxPoint x="360" y="90" as="sourcePoint" />
            <mxPoint x="450" y="90" as="targetPoint" />
          </mxGeometry>
        </mxCell>
        <mxCell id="P8AKB918pg-EpybjRqPn-42" value="&amp;lt;&amp;lt;extend&amp;gt;&amp;gt;" style="edgeLabel;html=1;align=center;verticalAlign=middle;resizable=0;points=[];rotation=-29;" vertex="1" connectable="0" parent="P8AKB918pg-EpybjRqPn-41">
          <mxGeometry x="-0.2339" relative="1" as="geometry">
            <mxPoint x="-8" y="-8" as="offset" />
          </mxGeometry>
        </mxCell>
      </root>
    </mxGraphModel>
  </diagram>
</mxfile>
